<svg xmlns="http://www.w3.org/2000/svg" xmlns:xlink="http://www.w3.org/1999/xlink" xmlns:svgjs="http://svgjs.dev/svgjs" version="1.1" width="1000" height="113" viewBox="0 0 1000 113">
   <g transform="matrix(1,0,0,1,-0.60604773438547,0.10299470294553004)"><svg xmlns="http://www.w3.org/2000/svg" xmlns:xlink="http://www.w3.org/1999/xlink" viewBox="0 0 396 45" data-background-color="#282634" preserveAspectRatio="xMidYMid meet" height="113" width="1000"><g id="tight-bounds" transform="matrix(1,0,0,1,0.23999490281664748,-0.0410155896685751)"><svg viewBox="0 0 395.52 45.082031179337136" height="45.082031179337136" width="395.52">
      <g><svg viewBox="0 0 510.1684678833044 58.149855319148934" height="45.082031179337136" width="395.52">
         <g transform="matrix(1,0,0,1,114.64846788330443,8.036629787234045)"><svg viewBox="0 0 395.52 42.076595744680844" height="42.076595744680844" width="395.52"><g id="textblocktransform"><svg viewBox="0 0 395.52 42.076595744680844" height="42.076595744680844" width="395.52" id="textblock">
            <g>
               <svg viewBox="0 0 395.52 42.076595744680844" height="42.076595744680844" width="395.52">
                  <g transform="matrix(1,0,0,1,0,0)">
                     <svg width="395.52" viewBox="0 -37.5 293.739990234375 31.25" height="42.076595744680844" data-palette-color="#ff4057">
                        <path d="M12.5-6.25L0-6.25 0-37.5 37.5-37.5 37.5-31.25 43.75-31.25 43.75-6.25 31.25-6.25 31.25-31.25 12.5-31.25 12.5-6.25ZM93.75-6.25L56.25-6.25 56.25-12.5 50-12.5 50-18.75 56.25-18.75 56.25-25 81.25-25 81.25-31.25 56.25-31.25 56.25-37.5 87.5-37.5 87.5-31.25 93.75-31.25 93.75-6.25ZM62.5-18.75L62.5-12.5 81.25-12.5 81.25-18.75 62.5-18.75ZM106.25-6.25L100-6.25 100-37.5 137.5-37.5 137.5-31.25 143.75-31.25 143.75-6.25 131.25-6.25 131.25-31.25 125-31.25 125-6.25 112.5-6.25 112.5-31.25 106.25-31.25 106.25-6.25ZM187.49-6.25L156.24-6.25 156.24-12.5 149.99-12.5 149.99-31.25 156.24-31.25 156.24-37.5 187.49-37.5 187.49-31.25 193.74-31.25 193.74-18.75 162.49-18.75 162.49-12.5 187.49-12.5 187.49-6.25ZM162.49-31.25L162.49-25 181.24-25 181.24-31.25 162.49-31.25ZM237.49-6.25L206.24-6.25 206.24-12.5 199.99-12.5 199.99-31.25 206.24-31.25 206.24-37.5 237.49-37.5 237.49-31.25 243.74-31.25 243.74-18.75 212.49-18.75 212.49-12.5 237.49-12.5 237.49-6.25ZM212.49-31.25L212.49-25 231.24-25 231.24-31.25 212.49-31.25ZM268.74-37.5L268.74-31.25 274.99-31.25 274.99-25 268.74-25 268.74-6.25 256.24-6.25 256.24-37.5 268.74-37.5ZM274.99-37.5L293.74-37.5 293.74-31.25 274.99-31.25 274.99-37.5Z" opacity="1" transform="matrix(1,0,0,1,0,0)" fill="#ff4057" class="undefined-text-0" data-fill-palette-color="primary" id="text-0"/>
                     </svg>
                  </g>
               </svg>
            </g>
      </svg>
   </g>
</svg>
</g>
<g>
   <svg viewBox="0 0 104.71519346628315 58.149855319148934" height="58.149855319148934" width="104.71519346628315">
      <g>
         <svg xmlns="http://www.w3.org/2000/svg" xmlns:xlink="http://www.w3.org/1999/xlink" xmlns:a="http://ns.adobe.com/AdobeSVGViewerExtensions/3.0/" version="1.1" x="0" y="0" viewBox="0 0 87.07499694824219 48.354000091552734" enable-background="new -6.462 -25.685 100 100" xml:space="preserve" height="58.149855319148934" width="104.71519346628315" class="icon-icon-0" data-fill-palette-color="accent" id="icon-0">
            <rect x="42.945" y="19.104" width="24.623" height="3.792" fill="#dcdcdc" data-fill-palette-color="accent"/>
               <rect x="42.945" y="33.315" width="24.623" height="3.794" fill="#dcdcdc" data-fill-palette-color="accent"/>
                  <path d="M42.943 0h-0.08H0v48.354h42.863 0.08 44.132v-3.433V41.47 6.884 0.873 0H42.943zM9.592 8.523h28.34v6.885H9.592V8.523zM80.167 41.47H42.943v-4.268H9.754v-3.79h33.189v-3.083H9.753v-3.792h33.19v3.697h24.625V26.44H42.943v-3.449H9.754v-3.792h33.189V6.884h37.223V41.47z" fill="#dcdcdc" data-fill-palette-color="accent"/>
                     <polygon points="72.726,17.605 75.297,13.141 77.871,8.676 72.718,8.681 67.565,8.686 70.147,13.146 " fill="#dcdcdc" data-fill-palette-color="accent"/>
                  </svg>
               </g>
            </svg>
         </g>
      </svg>
   </g>
      <defs/>
   </svg>
   <rect width="395.52" height="45.082031179337136" fill="none" stroke="none" visibility="hidden"/>
   </g>
   </svg>
   </g>
   </svg>